<?xml version="1.0" encoding="UTF-8" standalone="no"?>
<svg
   viewBox="0 0 24 24"
   width="24"
   height="24"
   version="1.1"
   id="svg3"
   sodipodi:docname="dialog-warning.svg"
   inkscape:version="1.4 (unknown)"
   xmlns:inkscape="http://www.inkscape.org/namespaces/inkscape"
   xmlns:sodipodi="http://sodipodi.sourceforge.net/DTD/sodipodi-0.dtd"
   xmlns="http://www.w3.org/2000/svg"
   xmlns:svg="http://www.w3.org/2000/svg">
  <defs
     id="defs3" />
  <sodipodi:namedview
     id="namedview3"
     pagecolor="#ffffff"
     bordercolor="#000000"
     borderopacity="0.25"
     inkscape:showpageshadow="2"
     inkscape:pageopacity="0.0"
     inkscape:pagecheckerboard="0"
     inkscape:deskcolor="#d1d1d1"
     inkscape:zoom="32.291667"
     inkscape:cx="12"
     inkscape:cy="12"
     inkscape:window-width="1920"
     inkscape:window-height="998"
     inkscape:window-x="0"
     inkscape:window-y="0"
     inkscape:window-maximized="1"
     inkscape:current-layer="svg3" />
  <style
     type="text/css"
     id="current-color-scheme">
.ColorScheme-Text { 
    color:#0a0b0c;
}
</style>
  <g
     transform="translate(1,1)"
     id="g3">
    <g
       style="fill:currentColor;fill-opacity:1;stroke:none"
       class="ColorScheme-Text"
       id="g2">
      <path
         d="m 3,7 c 0,3 0,9 0,9 l 3,4 v -3 -1 h 10 c 0,0 3,0 3,-3 0,-3 0,-3 0,-6 C 19,4 16,4 16,4 H 6 C 6,4 3,4 3,7 Z M 4,7 C 4,5 6,5 6,5 h 10 c 0,0 2,0 2,2 0,2 0,4 0,6 0,2 -2,2 -2,2 0,0 -8,0 -10,0 C 4,15 4,13 4,13 4,13 4,9 4,7 Z"
         id="path1"
         class="ColorScheme-Text"
         style="" />
      <path
         d="m10 6v5h2v-5zm0 6v2h2v-2z"
         id="path2" />
    </g>
  </g>
</svg>
