<?xml version="1.0" encoding="UTF-8" standalone="no"?>
<svg
   viewBox="0 0 24 24"
   width="24"
   height="24"
   version="1.1"
   id="svg1"
   sodipodi:docname="document-save-as.svg"
   inkscape:version="1.4 (unknown)"
   xmlns:inkscape="http://www.inkscape.org/namespaces/inkscape"
   xmlns:sodipodi="http://sodipodi.sourceforge.net/DTD/sodipodi-0.dtd"
   xmlns="http://www.w3.org/2000/svg"
   xmlns:svg="http://www.w3.org/2000/svg">
  <sodipodi:namedview
     id="namedview1"
     pagecolor="#ffffff"
     bordercolor="#000000"
     borderopacity="0.25"
     inkscape:showpageshadow="2"
     inkscape:pageopacity="0.0"
     inkscape:pagecheckerboard="0"
     inkscape:deskcolor="#d1d1d1"
     inkscape:zoom="1.6666667"
     inkscape:cx="11.7"
     inkscape:cy="11.7"
     inkscape:window-width="1920"
     inkscape:window-height="1000"
     inkscape:window-x="0"
     inkscape:window-y="0"
     inkscape:window-maximized="1"
     inkscape:current-layer="svg1" />
  <defs
     id="defs3051">
    <style
       type="text/css"
       id="current-color-scheme">
.ColorScheme-Text { 
    color:#0a0b0c;
}</style>
  </defs>
  <g
     transform="translate(1,1)"
     id="g1">
    <path
       style="fill:currentColor;fill-opacity:1;stroke:none"
       d="M 9,2.9980469 5,3 c 0,0 -3,0 -3,3 0,3 0,7 0,10 0,3 3,3 3,3 h 6 V 18 H 6 v -6 h 5 V 11 H 6 5 v 7 C 5,18 3,18 3,16 3,14 3,8 3,6 3,4 5,4 5,4 h 1 v 4 1 h 8 V 8 4 h 0.292969 L 17,6.7070312 V 7 10 h 1 V 7 6.3007812 h -0.0078 L 18,6.2910156 14.707031,2.9980469 l -0.0078,0.00977 v -0.00977 H 14 Z M 7,4 h 3.900391 V 8 H 7 Z m 11,7 -0.996094,0.994141 H 17 l -5,4.998047 0.0078,0.0098 -0.0039,1.003906 H 12 v 0.990235 0.0098 h 2 l 0.0059,-0.0098 h 0.0039 0.0098 l -0.0059,-0.0098 L 15,18 l 4,-3.996094 -0.705078,-0.708984 -4.990234,4.986328 -0.59375,-0.591797 4.992187,-4.988281 0.591797,0.59375 L 19,13.998047 l 1,-1 z"
       class="ColorScheme-Text"
       id="path1" />
  </g>
</svg>
