<?xml version="1.0" encoding="UTF-8" standalone="no"?>
<svg
   viewBox="0 0 24 24"
   width="24"
   height="24"
   version="1.1"
   id="svg1"
   sodipodi:docname="document-save-all.svg"
   inkscape:version="1.4 (unknown)"
   xmlns:inkscape="http://www.inkscape.org/namespaces/inkscape"
   xmlns:sodipodi="http://sodipodi.sourceforge.net/DTD/sodipodi-0.dtd"
   xmlns="http://www.w3.org/2000/svg"
   xmlns:svg="http://www.w3.org/2000/svg">
  <sodipodi:namedview
     id="namedview1"
     pagecolor="#ffffff"
     bordercolor="#000000"
     borderopacity="0.25"
     inkscape:showpageshadow="2"
     inkscape:pageopacity="0.0"
     inkscape:pagecheckerboard="0"
     inkscape:deskcolor="#d1d1d1"
     inkscape:zoom="1.6666667"
     inkscape:cx="12"
     inkscape:cy="11.7"
     inkscape:window-width="1920"
     inkscape:window-height="1000"
     inkscape:window-x="0"
     inkscape:window-y="0"
     inkscape:window-maximized="1"
     inkscape:current-layer="svg1" />
  <defs
     id="defs3051">
    <style
       type="text/css"
       id="current-color-scheme">
.ColorScheme-Text { 
    color:#0a0b0c;
}</style>
  </defs>
  <g
     transform="translate(1,1)"
     id="g1">
    <path
       style="fill:currentColor;fill-opacity:1;stroke:none"
       d="M 9,3.0039062 C 9,3.0039062 7,3 7,5 7,7 7,7 7,7 H 8 C 8,7 8,6 8,5 8,4 9,4 9,4 h 1 v 3 h 1 V 4 h 2 v 3 h 3 V 4 h 0.582031 L 18,5.4179688 C 18,5.4179688 18,12 18,13 c 0,1 -1,1 -1,1 h -1 v 1 h 1 c 0,0 2,0 2,-2 0,-2 0,-7.2421875 0,-7.2421875 V 5.0039062 h -0.0039 l -1.9961,-2 z M 5,8 C 5,8 3,8 3,10 v 8 c 0,2 2,2 2,2 h 1 1 4 1 1 c 0,0 2,0 2,-2 0,-2 0,-7.242188 0,-7.242188 V 10.003906 10 H 14.9961 L 13,8.0039062 V 8 Z m 0,1 h 1 v 3 1 h 6 V 12 9 h 0.582031 L 14,10.417969 c 0,0 0,6.582031 0,7.582031 0,1 -1,1 -1,1 H 12 V 15 H 6 v 1 3 H 5 C 5,19 4,19 4,18 V 10 C 4,9 5,9 5,9 Z m 2,0 h 2 v 3 H 7 Z m 0,7 h 4 v 3 H 7 Z"
       class="ColorScheme-Text"
       id="path1" />
  </g>
</svg>
