<?xml version="1.0" encoding="UTF-8" standalone="no"?>
<svg
   version="1.1"
   viewBox="0 0 24 24"
   width="24"
   height="24"
   id="svg1"
   sodipodi:docname="view-refresh.svg"
   inkscape:version="1.4 (unknown)"
   xmlns:inkscape="http://www.inkscape.org/namespaces/inkscape"
   xmlns:sodipodi="http://sodipodi.sourceforge.net/DTD/sodipodi-0.dtd"
   xmlns="http://www.w3.org/2000/svg"
   xmlns:svg="http://www.w3.org/2000/svg">
  <sodipodi:namedview
     id="namedview1"
     pagecolor="#ffffff"
     bordercolor="#000000"
     borderopacity="0.25"
     inkscape:showpageshadow="2"
     inkscape:pageopacity="0.0"
     inkscape:pagecheckerboard="0"
     inkscape:deskcolor="#d1d1d1"
     inkscape:zoom="1.6666667"
     inkscape:cx="12"
     inkscape:cy="11.7"
     inkscape:window-width="1920"
     inkscape:window-height="998"
     inkscape:window-x="0"
     inkscape:window-y="0"
     inkscape:window-maximized="1"
     inkscape:current-layer="svg1" />
  <defs
     id="defs1">
    <style
       type="text/css"
       id="current-color-scheme">
.ColorScheme-Text { 
    color:#0a0b0c;
} </style>
  </defs>
  <g
     transform="translate(1,1)"
     id="g1">
    <path
       d="m11 3a8 8 0 0 0-7.9277344 7h1.0058594a7 7 0 0 1 6.921875-6 7 7 0 0 1 6.320312 4h-3.320312v1h5v-1-4h-1v3.1679688a8 8 0 0 0-7-4.1679688zm6.921875 9a7 7 0 0 1-6.921875 6 7 7 0 0 1-6.3105469-4h3.3105469v-1h-5v1 4h1v-3.195312a8 8 0 0 0 7 4.195312 8 8 0 0 0 7.927734-7h-1.005859z"
       class="ColorScheme-Text"
       fill="currentColor"
       id="path1"
       style="" />
  </g>
</svg>
