<?xml version="1.0" encoding="UTF-8" standalone="no"?>
<svg
   clip-rule="evenodd"
   fill-rule="evenodd"
   stroke-linejoin="round"
   stroke-miterlimit="2"
   viewBox="0 0 62 62"
   version="1.1"
   id="svg3"
   sodipodi:docname="designer5.svg"
   width="62"
   height="62"
   inkscape:version="1.4 (e7c3feb100, 2024-10-09)"
   xmlns:inkscape="http://www.inkscape.org/namespaces/inkscape"
   xmlns:sodipodi="http://sodipodi.sourceforge.net/DTD/sodipodi-0.dtd"
   xmlns:xlink="http://www.w3.org/1999/xlink"
   xmlns="http://www.w3.org/2000/svg"
   xmlns:svg="http://www.w3.org/2000/svg">
  <defs
     id="defs3">
    <linearGradient
       inkscape:collect="always"
       xlink:href="#c"
       id="linearGradient459-5-5"
       gradientUnits="userSpaceOnUse"
       gradientTransform="translate(1.01,-1.022)"
       x1="-14.65"
       y1="9.1780005"
       x2="-6.4299998"
       y2="17.521999" />
    <linearGradient
       id="c"
       y1="9.1780005"
       x1="-14.65"
       y2="17.521999"
       x2="-6.4299998"
       gradientUnits="userSpaceOnUse"
       gradientTransform="translate(1.01,-1.022)">
      <stop
         id="stop240" />
      <stop
         offset="1"
         stop-opacity="0"
         id="stop242" />
    </linearGradient>
  </defs>
  <sodipodi:namedview
     id="namedview3"
     pagecolor="#ffffff"
     bordercolor="#000000"
     borderopacity="0.25"
     inkscape:showpageshadow="2"
     inkscape:pageopacity="0.0"
     inkscape:pagecheckerboard="0"
     inkscape:deskcolor="#d1d1d1"
     inkscape:zoom="5.5537345"
     inkscape:cx="22.417348"
     inkscape:cy="59.779595"
     inkscape:window-width="1920"
     inkscape:window-height="994"
     inkscape:window-x="0"
     inkscape:window-y="0"
     inkscape:window-maximized="1"
     inkscape:current-layer="svg3" />
  <linearGradient
     id="a"
     x2="1"
     gradientTransform="matrix(2.2317427,-55.16561,55.16561,2.2317427,29.499336,58.16561)"
     gradientUnits="userSpaceOnUse">
    <stop
       stop-color="#397f09"
       offset="0"
       id="stop1" />
    <stop
       stop-color="#86d651"
       offset="1"
       id="stop2" />
  </linearGradient>
  <path
     d="M 59,11.047997 C 59,6.6053166 55.394683,3 50.952003,3 H 11.047997 C 6.6053166,3 3,6.6053166 3,11.047997 V 50.952003 C 3,55.394683 6.6053166,59 11.047997,59 H 50.952003 C 55.394683,59 59,55.394683 59,50.952003 Z"
     fill="url(#a)"
     id="path2"
     style="fill:url(#a);stroke-width:1.29223" />
  <g
     id="g1"
     transform="translate(-0.81364664,3.2827485)">
    <g
       fill-rule="evenodd"
       stroke-width="1.014"
       id="g31-2-7"
       transform="matrix(1.3450255,0,0,1.2737227,57.054969,2.080649)">
      <path
         opacity="0.2"
         fill="url(#c)"
         d="m -12.06,7.293 -3.02,20.442 6.751,6.853 c 1.063,-0.939 2.311,-3.634 2.311,-5.304 V 13.426 Z"
         id="path29-1-9"
         style="fill:url(#linearGradient459-5-5)" />
    </g>
    <g
       stroke-linejoin="bevel"
       stroke-width="2"
       id="g37-2-3"
       transform="matrix(1.3450255,0,0,1.2737227,57.054969,3.45729)">
      <path
         fill="#ffffff"
         d="m -27.16,5.249 c -4.03,0 -7.05,2.044 -7.05,11.754 0,8.01 2.149,10.798 5.086,11.53 0.524,6.17 6.997,4.312 6.997,4.312 v -2.044 c 0,0 -2.611,0.88 -2.975,-2.29 2.888,-0.769 4.989,-3.586 4.989,-11.508 0,-9.71 -3.02,-11.754 -7.05,-11.754 m 0,2.044 c 2.01,0 3.02,1.689 3.02,9.71 0,8.02 -1.01,9.71 -3.02,9.71 -2.01,0 -3.02,-1.689 -3.02,-9.71 0,-8.02 1.01,-9.71 3.02,-9.71"
         id="path33-7-6" />
    </g>
    <path
       fill="#ffffff"
       fill-rule="evenodd"
       stroke-width="1.32721"
       d="m 36.771999,12.746548 h 4.061871 v 5.206984 h 2.703592 v 2.603487 H 40.83387 v 14.320465 c 0,2.603492 2.703592,0.650874 2.703592,0.650874 v 2.603491 c 0,0 -8.123989,4.556098 -8.123989,-3.254365 V 20.557019 h -1.35848 v -2.603487 h 1.35848 z"
       id="path39-0-0" />
    <path
       fill="#ffffff"
       d="M 44.248863,32.638053 C 44.248863,31.659202 44.936729,31 45.904044,31 h 3.568996 c 4.816443,0 7.568606,3.062771 7.568606,7.784176 0,4.466231 -2.924116,7.358885 -7.353652,7.358885 h -3.740955 c -0.709363,0 -1.698176,-0.38344 -1.698176,-1.594838 z m 3.225073,10.569827 h 2.171768 c 2.773647,0 4.041902,-2.020132 4.041902,-4.57256 0,-2.722532 -1.289049,-4.700133 -4.25686,-4.700133 h -1.95681 z"
       id="path4"
       style="stroke-width:0.689671" />
  </g>
</svg>
