<?xml version="1.0" encoding="UTF-8" standalone="no"?>
<svg
   width="62"
   height="62"
   version="1.1"
   id="svg10"
   sodipodi:docname="org.kde.Ikona.svg"
   inkscape:version="1.4 (unknown)"
   xmlns:inkscape="http://www.inkscape.org/namespaces/inkscape"
   xmlns:sodipodi="http://sodipodi.sourceforge.net/DTD/sodipodi-0.dtd"
   xmlns="http://www.w3.org/2000/svg"
   xmlns:svg="http://www.w3.org/2000/svg">
  <defs
     id="defs10" />
  <sodipodi:namedview
     id="namedview10"
     pagecolor="#ffffff"
     bordercolor="#000000"
     borderopacity="0.25"
     inkscape:showpageshadow="2"
     inkscape:pageopacity="0.0"
     inkscape:pagecheckerboard="0"
     inkscape:deskcolor="#d1d1d1"
     inkscape:zoom="6.0546875"
     inkscape:cx="22.874839"
     inkscape:cy="31.793548"
     inkscape:window-width="1920"
     inkscape:window-height="998"
     inkscape:window-x="0"
     inkscape:window-y="0"
     inkscape:window-maximized="1"
     inkscape:current-layer="svg10" />
  <g
     id="g10"
     transform="matrix(0.96428571,0,0,0.96491228,0.14285728,-0.3596491)">
    <path
       style="opacity:0.2"
       d="M 9.5976562,17 C 6.4971774,17 4,19.45459 4,22.5 v 33 C 4,58.550782 6.4971774,61 9.5976562,61 H 31.996094 54.402344 C 57.502822,61 60,58.550782 60,55.5 v -33 C 60,19.45459 57.502822,17 54.402344,17 h -22.40625 z"
       id="path1" />
    <path
       style="fill:#e63e60"
       d="M 9.5994532,16 C 6.4989744,16 4,18.454589 4,21.5 v 33 C 4,57.550782 6.4989744,60 9.5994532,60 H 31.997266 V 16 Z m 0,0"
       id="path2" />
    <path
       style="fill:#177bc7"
       d="M 31.997266,16 V 60 H 54.400548 C 57.501026,60 60,57.550782 60,54.5 v -33 C 60,18.454589 57.501026,16 54.400548,16 Z m 0,0"
       id="path3" />
    <path
       style="opacity:0.2;fill:#ffffff"
       d="M 9.5976562,16 C 6.4971775,16 4,18.454589 4,21.5 v 1 C 4,19.454589 6.4971775,17 9.5976562,17 H 31.996094 54.402344 C 57.502822,17 60,19.454589 60,22.5 v -1 C 60,18.454589 57.502822,16 54.402344,16 h -22.40625 z"
       id="path4" />
    <path
       style="opacity:0.1"
       d="m 32,22 c -6.626954,0 -12,5.373046 -12,12 0,6.626952 5.373046,12 12,12 6.632812,0 12,-5.373048 12,-12 0,-6.626954 -5.367188,-12 -12,-12 z"
       id="path5" />
    <path
       style="fill:#5d6266"
       d="m 32,20.999999 c -6.626954,0 -12,5.373047 -12,12.000001 0,6.626952 5.373046,12 12,12 6.632812,0 12,-5.373048 12,-12 0,-6.626954 -5.367188,-12.000001 -12,-12.000001 z"
       id="path6" />
    <circle
       style="opacity:0.1"
       cx="32"
       cy="34"
       r="9"
       id="circle6" />
    <circle
       style="fill:#aa87de"
       cx="32"
       cy="33"
       r="9"
       id="circle7" />
    <path
       style="opacity:0.1"
       d="M 10,5 C 6.6777342,5 4,7.500781 4,10.601562 v 44 C 4,51.50078 6.6777342,49 10,49 c 3.322266,0 6,2.50078 6,5.601562 v -44 C 16,7.500781 13.322266,5 10,5 Z m 44,0 c -3.328128,0 -6,2.500781 -6,5.601562 v 44 C 48,51.50078 50.671872,49 54,49 c 3.322264,0 6,2.50078 6,5.601562 v -44 C 60,7.500781 57.322264,5 54,5 Z"
       id="path7" />
    <path
       style="fill:#3daee9"
       d="M 54.000002,4 C 50.671874,4 48,6.4992184 48,9.6 v 44 C 48,50.499218 50.671874,48 54.000002,48 57.322266,48 60,50.499218 60,53.6 V 9.6 C 60,6.4992184 57.322266,4 54.000002,4 Z"
       id="path8" />
    <path
       style="fill:#ff6c7f"
       d="M 9.9999998,4 C 6.677734,4 4,6.4992184 4,9.6 v 44 C 4,50.499218 6.677734,48 9.9999998,48 13.322266,48 16,50.499218 16,53.6 V 9.6 C 16,6.4992184 13.322266,4 9.9999998,4 Z"
       id="path9" />
    <path
       style="opacity:0.2;fill:#ffffff"
       d="M 10,4 C 6.6777342,4 4,6.5007811 4,9.6015625 V 10.601562 C 4,7.5007815 6.6777342,5 10,5 c 3.322266,0 6,2.5007815 6,5.601562 V 9.6015625 C 16,6.5007811 13.322266,4 10,4 Z M 54,4 C 50.671872,4 48,6.5007811 48,9.6015625 V 10.601562 C 48,7.5007815 50.671872,5 54,5 c 3.322264,0 6,2.5007815 6,5.601562 V 9.6015625 C 60,6.5007811 57.322264,4 54,4 Z"
       id="path10" />
  </g>
</svg>
