<?xml version="1.0" encoding="UTF-8" standalone="no"?>
<svg
   width="22"
   height="22"
   version="1"
   id="svg5"
   sodipodi:docname="preferences-desktop-user-password.svg"
   inkscape:version="1.4 (e7c3feb100, 2024-10-09)"
   xmlns:inkscape="http://www.inkscape.org/namespaces/inkscape"
   xmlns:sodipodi="http://sodipodi.sourceforge.net/DTD/sodipodi-0.dtd"
   xmlns="http://www.w3.org/2000/svg"
   xmlns:svg="http://www.w3.org/2000/svg">
  <defs
     id="defs5" />
  <sodipodi:namedview
     id="namedview5"
     pagecolor="#ffffff"
     bordercolor="#000000"
     borderopacity="0.25"
     inkscape:showpageshadow="2"
     inkscape:pageopacity="0.0"
     inkscape:pagecheckerboard="0"
     inkscape:deskcolor="#d1d1d1"
     inkscape:zoom="34.090909"
     inkscape:cx="11"
     inkscape:cy="11"
     inkscape:window-width="1920"
     inkscape:window-height="996"
     inkscape:window-x="0"
     inkscape:window-y="0"
     inkscape:window-maximized="1"
     inkscape:current-layer="svg5" />
  <path
     fill="#d2d2d2"
     d="m11 1c-3.324 0-6 2.676-6 6v2h2v-2c0-2.216 1.784-4 4-4s4 1.784 4 4v2h2v-2c0-3.324-2.676-6-6-6z"
     id="path1"
     style="fill:#b0b0b0;fill-opacity:1" />
  <rect
     fill="#ffb437"
     width="12"
     height="16"
     x="-21"
     y="-19"
     rx="1"
     ry="1"
     transform="matrix(0,-1,-1,0,0,0)"
     id="rect1" />
  <path
     fill="#fff"
     opacity=".2"
     d="m11 1c-3.324 0-6 2.676-6 6v0.5c0-3.324 2.676-6 6-6s6 2.676 6 6v-0.5c0-3.324-2.676-6-6-6z"
     id="path2" />
  <path
     fill="#fff"
     opacity=".2"
     d="m4 9c-0.554 0-1 0.446-1 1v0.5c0-0.554 0.446-1 1-1h14c0.554 0 1 0.446 1 1v-0.5c0-0.554-0.446-1-1-1h-14z"
     id="path3" />
  <path
     opacity=".2"
     d="m11 3c-2.216 0-4 1.784-4 4v0.5c0-2.216 1.784-4 4-4s4 1.784 4 4v-0.5c0-2.216-1.784-4-4-4z"
     id="path4" />
  <rect
     fill="#fed96a"
     width="16"
     height="7"
     x="3"
     y="11"
     rx="0"
     ry="0"
     id="rect4" />
  <path
     opacity=".2"
     d="m3 20v0.5c0 0.554 0.446 1 1 1h14c0.554 0 1-0.446 1-1v-0.5c0 0.554-0.446 1-1 1h-14c-0.554 0-1-0.446-1-1z"
     id="path5" />
</svg>
