<?xml version="1.0" encoding="UTF-8" standalone="no"?>
<svg
   viewBox="0 0 22 22"
   version="1.1"
   id="svg1"
   sodipodi:docname="document-save-as-template.svg"
   inkscape:version="1.4 (unknown)"
   xmlns:inkscape="http://www.inkscape.org/namespaces/inkscape"
   xmlns:sodipodi="http://sodipodi.sourceforge.net/DTD/sodipodi-0.dtd"
   xmlns="http://www.w3.org/2000/svg"
   xmlns:svg="http://www.w3.org/2000/svg">
  <sodipodi:namedview
     id="namedview1"
     pagecolor="#ffffff"
     bordercolor="#000000"
     borderopacity="0.25"
     inkscape:showpageshadow="2"
     inkscape:pageopacity="0.0"
     inkscape:pagecheckerboard="0"
     inkscape:deskcolor="#d1d1d1"
     inkscape:zoom="1.8181818"
     inkscape:cx="11"
     inkscape:cy="10.725"
     inkscape:window-width="1920"
     inkscape:window-height="1000"
     inkscape:window-x="0"
     inkscape:window-y="0"
     inkscape:window-maximized="1"
     inkscape:current-layer="svg1" />
  <defs
     id="defs3051">
    <style
       type="text/css"
       id="current-color-scheme">
.ColorScheme-Text { 
    color:#0a0b0c;
}</style>
  </defs>
  <path
     style="fill:currentColor;fill-opacity:1;stroke:none"
     d="M 8,2.9980469 5,3 c 0,0 -3,0 -3,3 0,3 0,7 0,10 0,3 3,3 3,3 h 7 V 18 H 6 v -6 h 9 V 11 H 6 5 v 7 C 5,18 3,18 3,16 3,14 3,8 3,6 3,4 5,4 5,4 h 1 v 4 1 h 8 V 8 4 h 0.292969 L 17,6.7070312 V 7 12 h 1 V 7 6.3007812 H 17.9922 L 18,6.2910156 14.707031,2.9980469 l -0.0078,0.00977 v -0.00977 H 14 Z M 7,4 h 3.900391 V 8 H 7 Z m 9,9 -0.574219,1.613281 -1.546875,-0.734375 0.734375,1.546875 L 13,16 14.613281,16.574219 13.878906,18.121094 15.425781,17.386719 16,19 16.574219,17.386719 18.121094,18.121094 17.386719,16.574219 19,16 l -1.613281,-0.574219 0.734375,-1.546875 -1.546875,0.734375 z"
     class="ColorScheme-Text"
     id="path1" />
</svg>
