<?xml version="1.0" encoding="UTF-8" standalone="no"?>
<!-- Created with Inkscape (http://www.inkscape.org/) -->

<svg
   width="62"
   height="62"
   viewBox="0 0 62 62"
   version="1.1"
   id="svg1"
   inkscape:version="1.4 (e7c3feb100, 2024-10-09)"
   sodipodi:docname="inkscape.svg"
   xmlns:inkscape="http://www.inkscape.org/namespaces/inkscape"
   xmlns:sodipodi="http://sodipodi.sourceforge.net/DTD/sodipodi-0.dtd"
   xmlns:xlink="http://www.w3.org/1999/xlink"
   xmlns="http://www.w3.org/2000/svg"
   xmlns:svg="http://www.w3.org/2000/svg">
  <sodipodi:namedview
     id="namedview1"
     pagecolor="#ffffff"
     bordercolor="#000000"
     borderopacity="0.25"
     inkscape:showpageshadow="2"
     inkscape:pageopacity="0.0"
     inkscape:pagecheckerboard="0"
     inkscape:deskcolor="#d1d1d1"
     inkscape:document-units="px"
     inkscape:zoom="10.74725"
     inkscape:cx="26.146223"
     inkscape:cy="31.542953"
     inkscape:window-width="1920"
     inkscape:window-height="996"
     inkscape:window-x="0"
     inkscape:window-y="0"
     inkscape:window-maximized="1"
     inkscape:current-layer="layer1" />
  <defs
     id="defs1">
    <linearGradient
       id="linearGradient2"
       inkscape:collect="always">
      <stop
         style="stop-color:#869eac;stop-opacity:1;"
         offset="0"
         id="stop19" />
      <stop
         style="stop-color:#b7bdc8;stop-opacity:1;"
         offset="1"
         id="stop20" />
    </linearGradient>
    <linearGradient
       id="linearGradient1"
       inkscape:collect="always">
      <stop
         style="stop-color:#444d54;stop-opacity:1;"
         offset="0"
         id="stop17" />
      <stop
         style="stop-color:#1e2630;stop-opacity:1;"
         offset="1"
         id="stop18" />
    </linearGradient>
    <radialGradient
       id="paint664_radial_890_11"
       cx="0"
       cy="0"
       r="1"
       gradientUnits="userSpaceOnUse"
       gradientTransform="matrix(-16.000099,-9.999913,9.999913,-16.000099,583,171)">
      <stop
         offset="0.42141"
         stop-color="#B7C6CD"
         id="stop2071" />
      <stop
         offset="1"
         stop-color="#EFF2F6"
         id="stop2072" />
    </radialGradient>
    <linearGradient
       id="paint665_linear_890_11"
       x1="605"
       y1="180"
       x2="601.466"
       y2="162.72301"
       gradientUnits="userSpaceOnUse">
      <stop
         stop-color="#5200FF"
         id="stop2073" />
      <stop
         offset="1"
         stop-color="#0085FF"
         id="stop2074" />
    </linearGradient>
    <linearGradient
       id="paint666_linear_890_11"
       x1="567"
       y1="181"
       x2="562.11798"
       y2="174.183"
       gradientUnits="userSpaceOnUse">
      <stop
         stop-color="#5200FF"
         id="stop2075" />
      <stop
         offset="0.670391"
         stop-color="#0085FF"
         id="stop2076" />
    </linearGradient>
    <linearGradient
       id="paint667_linear_890_11"
       x1="605"
       y1="180"
       x2="597.32001"
       y2="174.24001"
       gradientUnits="userSpaceOnUse">
      <stop
         stop-color="#5200FF"
         id="stop2077" />
      <stop
         offset="1"
         stop-color="#0085FF"
         id="stop2078" />
    </linearGradient>
    <linearGradient
       id="paint668_linear_890_11"
       x1="567"
       y1="180"
       x2="561.23999"
       y2="172.32001"
       gradientUnits="userSpaceOnUse">
      <stop
         stop-color="#5200FF"
         id="stop2079" />
      <stop
         offset="1"
         stop-color="#0085FF"
         id="stop2080" />
    </linearGradient>
    <linearGradient
       id="paint669_linear_890_11"
       x1="607"
       y1="179"
       x2="602.50598"
       y2="171.80901"
       gradientUnits="userSpaceOnUse">
      <stop
         stop-color="#5200FF"
         id="stop2081" />
      <stop
         offset="1"
         stop-color="#0085FF"
         id="stop2082" />
    </linearGradient>
    <linearGradient
       id="paint670_linear_890_11"
       x1="607"
       y1="217"
       x2="568.82599"
       y2="170.01601"
       gradientUnits="userSpaceOnUse">
      <stop
         stop-color="#5200FF"
         id="stop2083" />
      <stop
         offset="1"
         stop-color="#0085FF"
         id="stop2084" />
    </linearGradient>
    <radialGradient
       id="paint671_radial_890_11"
       cx="0"
       cy="0"
       r="1"
       gradientUnits="userSpaceOnUse"
       gradientTransform="matrix(0,20,-16,0,583,187)">
      <stop
         offset="0.869716"
         stop-color="#EFF2F6"
         id="stop2085" />
      <stop
         offset="1"
         stop-color="#B7C6CD"
         id="stop2086" />
    </radialGradient>
    <linearGradient
       id="paint431_linear_890_11"
       x1="213"
       y1="517"
       x2="157"
       y2="461"
       gradientUnits="userSpaceOnUse"
       gradientTransform="matrix(0.85714286,0,0,0.85714286,-127.57143,-388.14286)">
      <stop
         offset="0.405339"
         stop-color="#5200FF"
         id="stop1604" />
      <stop
         offset="1"
         stop-color="#0085FF"
         id="stop1605" />
    </linearGradient>
    <linearGradient
       id="paint432_linear_890_11"
       x1="175"
       y1="489"
       x2="177"
       y2="489"
       gradientUnits="userSpaceOnUse">
      <stop
         stop-color="#EFF2F6"
         id="stop1606" />
      <stop
         offset="1"
         stop-color="#B7C6CD"
         id="stop1607" />
    </linearGradient>
    <linearGradient
       id="paint434_linear_890_11"
       x1="181"
       y1="489"
       x2="183"
       y2="489"
       gradientUnits="userSpaceOnUse">
      <stop
         stop-color="#EFF2F6"
         id="stop1610" />
      <stop
         offset="1"
         stop-color="#B7C6CD"
         id="stop1611" />
    </linearGradient>
    <linearGradient
       id="paint436_linear_890_11"
       x1="187"
       y1="489"
       x2="189"
       y2="489"
       gradientUnits="userSpaceOnUse">
      <stop
         stop-color="#EFF2F6"
         id="stop1614" />
      <stop
         offset="1"
         stop-color="#B7C6CD"
         id="stop1615" />
    </linearGradient>
    <linearGradient
       id="paint438_linear_890_11"
       x1="193"
       y1="489"
       x2="195"
       y2="489"
       gradientUnits="userSpaceOnUse">
      <stop
         stop-color="#EFF2F6"
         id="stop1618" />
      <stop
         offset="1"
         stop-color="#B7C6CD"
         id="stop1619" />
    </linearGradient>
    <linearGradient
       id="paint440_linear_890_11"
       x1="185"
       y1="479"
       x2="185"
       y2="481"
       gradientUnits="userSpaceOnUse">
      <stop
         stop-color="#EFF2F6"
         id="stop1622" />
      <stop
         offset="1"
         stop-color="#B7C6CD"
         id="stop1623" />
    </linearGradient>
    <linearGradient
       id="paint442_linear_890_11"
       x1="185"
       y1="485"
       x2="185"
       y2="487"
       gradientUnits="userSpaceOnUse">
      <stop
         stop-color="#EFF2F6"
         id="stop1626" />
      <stop
         offset="1"
         stop-color="#B7C6CD"
         id="stop1627" />
    </linearGradient>
    <linearGradient
       id="paint444_linear_890_11"
       x1="185"
       y1="491"
       x2="185"
       y2="493"
       gradientUnits="userSpaceOnUse">
      <stop
         stop-color="#EFF2F6"
         id="stop1630" />
      <stop
         offset="1"
         stop-color="#B7C6CD"
         id="stop1631" />
    </linearGradient>
    <linearGradient
       id="paint446_linear_890_11"
       x1="185"
       y1="497"
       x2="185"
       y2="499"
       gradientUnits="userSpaceOnUse">
      <stop
         stop-color="#EFF2F6"
         id="stop1634" />
      <stop
         offset="1"
         stop-color="#B7C6CD"
         id="stop1635" />
    </linearGradient>
    <linearGradient
       id="paint448_linear_890_11"
       x1="167"
       y1="471"
       x2="203"
       y2="507"
       gradientUnits="userSpaceOnUse"
       gradientTransform="matrix(0.85714286,0,0,0.85714286,-127.57143,-388.14286)">
      <stop
         stop-color="#EFF2F6"
         id="stop1638" />
      <stop
         offset="0.493056"
         stop-color="#B7C6CD"
         id="stop1639" />
    </linearGradient>
    <linearGradient
       id="paint449_linear_890_11"
       x1="201"
       y1="505"
       x2="169"
       y2="473"
       gradientUnits="userSpaceOnUse"
       gradientTransform="matrix(0.85714286,0,0,0.85714286,-127.57143,-388.14286)">
      <stop
         offset="0.389454"
         stop-color="#2E2E41"
         id="stop1640" />
      <stop
         offset="1"
         stop-color="#566C80"
         id="stop1641" />
    </linearGradient>
    <linearGradient
       id="paint450_linear_890_11"
       x1="177"
       y1="481"
       x2="193"
       y2="497"
       gradientUnits="userSpaceOnUse"
       gradientTransform="matrix(0.85714286,0,0,0.85714286,-127.57143,-388.14286)">
      <stop
         offset="0.18393"
         stop-color="#566C80"
         id="stop1642" />
      <stop
         offset="0.912398"
         stop-color="#2E2E41"
         id="stop1643" />
    </linearGradient>
    <linearGradient
       id="linearGradient1059"
       x1="163.41"
       x2="186"
       y1="-10.41"
       y2="-29.162001"
       gradientTransform="matrix(0.9001,0,0,0.7133,-124.38,-36.514)"
       gradientUnits="userSpaceOnUse">
      <stop
         stop-color="#9b39c5"
         offset="0"
         id="stop1" />
      <stop
         stop-color="#df86f4"
         offset="1"
         id="stop2" />
    </linearGradient>
    <linearGradient
       id="linearGradient1061"
       x1="153.34"
       x2="162.86"
       y1="-23.452999"
       y2="-3.5996001"
       gradientTransform="matrix(0.9001,0,0,0.7133,-124.38,-36.514)"
       gradientUnits="userSpaceOnUse">
      <stop
         stop-color="#6a21b4"
         offset="0"
         id="stop3" />
      <stop
         stop-color="#3b0c92"
         offset="1"
         id="stop4" />
    </linearGradient>
    <linearGradient
       id="linearGradient1063"
       x1="152.28999"
       x2="165.24001"
       y1="-19.549"
       y2="-1.3358999"
       gradientTransform="matrix(0.9001,0,0,0.7133,-124.38,-36.514)"
       gradientUnits="userSpaceOnUse">
      <stop
         stop-color="#441381"
         offset="0"
         id="stop5" />
      <stop
         stop-color="#280779"
         offset="1"
         id="stop6" />
    </linearGradient>
    <linearGradient
       id="linearGradient1065"
       x1="159.08"
       x2="163.25999"
       y1="-36.709"
       y2="-9.7538996"
       gradientTransform="matrix(0.9001,0,0,0.7133,-124.38,-36.514)"
       gradientUnits="userSpaceOnUse">
      <stop
         stop-color="#b244d9"
         offset="0"
         id="stop7" />
      <stop
         stop-color="#7520bb"
         offset="1"
         id="stop8" />
    </linearGradient>
    <linearGradient
       id="linearGradient1067"
       x1="194.86"
       x2="194.94"
       y1="7.0853"
       y2="-9.9609003"
       gradientTransform="matrix(0.9001,0,0,0.7133,-124.38,-36.514)"
       gradientUnits="userSpaceOnUse">
      <stop
         stop-color="#22bfed"
         offset="0"
         id="stop9" />
      <stop
         stop-color="#209be5"
         offset="1"
         id="stop10" />
    </linearGradient>
    <linearGradient
       id="linearGradient1069"
       x1="175.82001"
       x2="189.42999"
       y1="-17.188"
       y2="3.7852001"
       gradientTransform="matrix(0.9001,0,0,0.7133,-124.38,-36.514)"
       gradientUnits="userSpaceOnUse">
      <stop
         stop-color="#1b5fca"
         offset="0"
         id="stop11" />
      <stop
         stop-color="#1b9aed"
         offset="1"
         id="stop12" />
    </linearGradient>
    <linearGradient
       id="linearGradient1071"
       x1="147.14"
       x2="170.53"
       y1="6.6777"
       y2="36.178001"
       gradientTransform="matrix(0.9001,0,0,0.7133,-124.38,-36.514)"
       gradientUnits="userSpaceOnUse">
      <stop
         stop-color="#f7c43e"
         offset="0"
         id="stop13" />
      <stop
         stop-color="#f8995d"
         offset="1"
         id="stop14" />
    </linearGradient>
    <linearGradient
       id="linearGradient1073"
       x1="155.58"
       x2="170.53"
       y1="1.4211"
       y2="36.178001"
       gradientTransform="matrix(0.9001,0,0,0.7133,-124.38,-36.514)"
       gradientUnits="userSpaceOnUse">
      <stop
         stop-color="#fce57d"
         offset="0"
         id="stop15" />
      <stop
         stop-color="#feb076"
         offset="1"
         id="stop16" />
    </linearGradient>
    <filter
       id="filter850"
       x="-0.016937609"
       y="-0.0092912613"
       width="1.0338752"
       height="1.0185825"
       color-interpolation-filters="sRGB">
      <feGaussianBlur
         stdDeviation="0.15549739"
         id="feGaussianBlur1" />
    </filter>
    <linearGradient
       id="linearGradient2959">
      <stop
         style="stop-color:#ffffff;stop-opacity:1;"
         offset="0"
         id="stop2961" />
      <stop
         style="stop-color:#000000;stop-opacity:0;"
         offset="1"
         id="stop2963" />
    </linearGradient>
    <linearGradient
       id="paint711_linear_890_11"
       x1="785.49377"
       y1="61.109535"
       x2="784.86401"
       y2="117"
       gradientUnits="userSpaceOnUse"
       gradientTransform="translate(-752,-58)">
      <stop
         offset="0.29169372"
         stop-color="#EFF2F6"
         id="stop2165"
         style="stop-color:#afbed2;stop-opacity:1;" />
      <stop
         offset="1"
         stop-color="#B7C6CD"
         id="stop2166"
         style="stop-color:#526b77;stop-opacity:1;" />
    </linearGradient>
    <radialGradient
       id="paint712_radial_890_11"
       cx="0"
       cy="0"
       r="1"
       gradientUnits="userSpaceOnUse"
       gradientTransform="matrix(22.216699,21.999996,-21.99894,22.215633,30.867,31)">
      <stop
         offset="0.420978"
         stop-color="#F15700"
         id="stop2167" />
      <stop
         offset="0.792773"
         stop-color="#FF0000"
         id="stop2168" />
    </radialGradient>
    <radialGradient
       id="paint713_radial_890_11"
       cx="0"
       cy="0"
       r="1"
       gradientUnits="userSpaceOnUse"
       gradientTransform="matrix(-16.688097,16.851418,-13.741875,-13.608691,50.791,10.8957)">
      <stop
         stop-color="#FFE607"
         id="stop2169" />
      <stop
         offset="0.903378"
         stop-color="#FF7E07"
         id="stop2170" />
    </radialGradient>
    <radialGradient
       id="paint714_radial_890_11"
       cx="0"
       cy="0"
       r="1"
       gradientUnits="userSpaceOnUse"
       gradientTransform="matrix(-22.961171,-7.4640815,7.4454397,-22.903825,31.961,30.8155)">
      <stop
         offset="0.440692"
         stop-color="#001AFF"
         id="stop2171" />
      <stop
         offset="1"
         stop-color="#0085FF"
         id="stop2172" />
    </radialGradient>
    <linearGradient
       inkscape:collect="always"
       xlink:href="#linearGradient1"
       id="linearGradient18"
       x1="31.647533"
       y1="13.51142"
       x2="31.459175"
       y2="55.959011"
       gradientUnits="userSpaceOnUse" />
    <linearGradient
       inkscape:collect="always"
       xlink:href="#linearGradient2"
       id="linearGradient20"
       x1="34.915142"
       y1="59"
       x2="35.229469"
       y2="3.3173487"
       gradientUnits="userSpaceOnUse" />
  </defs>
  <g
     inkscape:label="Layer 1"
     inkscape:groupmode="layer"
     id="layer1">
    <path
       d="M 59,31 C 59,46.464 46.464,59 31,59 15.536,59 3,46.464 3,31 3,15.536 15.536,3 31,3 46.464,3 59,15.536 59,31 Z"
       id="path691"
       style="fill:url(#linearGradient20);fill-opacity:1" />
    <g
       id="g1"
       transform="translate(-0.65061983,-3.0920244)">
      <path
         style="opacity:0.2;fill-rule:evenodd;stroke-width:1.41806"
         d="m 31.647534,13.51142 c -1.211103,4.91e-4 -2.389313,0.454599 -3.317473,1.416571 L 11.811835,32.021238 c -0.910152,0.943403 -1.392982,2.186887 -1.411096,3.418086 -2.73e-4,0.01872 0,0.06551 0,0.08597 -1.69e-4,3.663031 9.096716,0.103907 9.977336,4.582415 0.4765,2.423834 -4.310777,1.314802 -4.310777,3.753522 0,2.860685 9.116054,0.52823 11.028735,3.251758 1.464113,2.084788 -3.507941,2.173479 -2.346309,4.169355 0.996462,1.712087 4.27544,0.615276 4.869696,2.916325 0.678784,2.628445 4.763635,2.336331 7.232592,0.252266 1.513486,-1.27754 -1.715618,-2.078641 -0.340323,-3.504022 1.375212,-1.425488 6.837743,-1.155848 6.471713,-4.249752 -0.242254,-2.04758 -2.611509,-2.275081 -2.650666,-4.587948 -0.136734,-1.958731 2.61892,-1.385612 9.661908,-3.334932 2.816193,-1.325651 2.915945,-2.030878 2.905212,-3.251761 -2.16e-4,-0.02423 0,-0.05732 0,-0.08317 -0.01604,-1.231106 -0.584032,-2.474714 -1.494107,-3.418093 L 34.967783,14.927991 c -0.928375,-0.962076 -2.106989,-1.41608 -3.317488,-1.416571 z m 18.181101,29.809193 c -0.300359,-0.01089 -0.602513,0.01708 -0.816231,0.08597 -0.402838,0.133992 -2.312663,0.211015 -2.155391,1.885088 1.728986,0.836642 4.364587,1.501987 4.678778,-0.171879 0.235897,-1.255238 -0.805939,-1.76072 -1.707156,-1.799143 z m -31.758132,4.310738 c -0.168388,0.02311 -0.283655,0.104817 -0.448242,0.180194 -1.316042,0.602499 -2.197934,1.871865 -0.968398,2.425654 1.229717,0.553646 2.054151,-0.03418 3.1321,-0.720763 1.078131,-0.686922 1.046381,-0.810632 0.968398,-1.075608 -0.149439,0.03598 -1.12878,-0.700266 -2.160917,-0.809477 -0.172001,-0.01732 -0.354592,-0.02311 -0.522941,0 z"
         id="path1" />
      <path
         style="fill:url(#linearGradient18);fill-rule:evenodd;stroke-width:1.41806"
         d="m 31.647534,12.092024 c -1.211103,4.91e-4 -2.389313,0.454599 -3.317473,1.416588 L 11.811835,30.601844 c -0.910152,0.943402 -1.392982,2.186886 -1.411096,3.418086 -2.73e-4,0.01872 0,0.06551 0,0.08596 -1.69e-4,3.663031 9.096716,0.103906 9.977336,4.582397 0.4765,2.423834 -4.310777,1.314803 -4.310777,3.753526 0,2.86068 9.116054,0.528228 11.028735,3.251754 1.464113,2.084792 -3.507941,2.173482 -2.346309,4.169355 0.996462,1.71209 4.27544,0.615279 4.869696,2.916329 0.678784,2.628441 4.763635,2.336334 7.232592,0.252266 1.513486,-1.277543 -1.715618,-2.078641 -0.340323,-3.504026 1.375212,-1.425486 6.837743,-1.155846 6.471713,-4.249752 -0.242254,-2.047569 -2.611509,-2.275069 -2.650666,-4.58794 -0.136734,-1.958736 2.61892,-1.38562 9.661908,-3.334928 2.816193,-1.325661 2.915945,-2.030888 2.905212,-3.251769 -2.16e-4,-0.02423 0,-0.05733 0,-0.08317 -0.01604,-1.231105 -0.584032,-2.474716 -1.494107,-3.418087 L 34.967783,13.508612 c -0.928375,-0.962093 -2.106989,-1.416097 -3.317488,-1.416588 z m 18.181101,29.809195 c -0.300359,-0.01091 -0.602513,0.01708 -0.816231,0.08598 -0.402838,0.133925 -2.312663,0.211003 -2.155391,1.885079 1.728986,0.83664 4.364587,1.501995 4.678778,-0.17188 0.235897,-1.25524 -0.805939,-1.760715 -1.707156,-1.799139 z m -31.758132,4.310736 c -0.168388,0.02311 -0.283655,0.104817 -0.448242,0.180195 -1.316042,0.602498 -2.197934,1.871866 -0.968398,2.425652 1.229717,0.553648 2.054151,-0.03418 3.1321,-0.720762 1.078131,-0.686922 1.046381,-0.810631 0.968398,-1.075608 -0.149439,0.03598 -1.12878,-0.700255 -2.160917,-0.809477 -0.172001,-0.01732 -0.354592,-0.02311 -0.522941,0 z"
         id="path2" />
      <path
         style="opacity:0.2;fill-rule:evenodd;stroke-width:1.41806"
         d="m 31.726304,17.870753 c 1.246336,0.01068 4.661453,4.244989 7.708432,7.41613 0.857072,1.15221 -0.331516,2.333115 -0.331516,2.333115 l -6.381947,-3.499717 -2.818096,3.833259 -2.486197,-3.74912 -1.492533,5.832536 -4.392582,-2.666359 1.16063,-1.500459 6.878784,-7.082276 c 0.527648,-0.538908 0.931704,-0.926136 2.155002,-0.91659 z"
         id="path3" />
      <path
         style="fill:#ffffff;fill-rule:evenodd;stroke-width:1.41806"
         d="m 31.726304,16.451375 c 1.246336,0.01068 4.661453,4.24497 7.708432,7.416112 0.857072,1.152211 -0.331516,2.333115 -0.331516,2.333115 l -6.381947,-3.499717 -2.818096,3.833261 -2.486197,-3.74912 -1.492533,5.832534 -4.392582,-2.666358 1.16063,-1.500459 6.878784,-7.082276 c 0.527648,-0.538904 0.931704,-0.926134 2.155002,-0.91659 z"
         id="path4" />
      <path
         style="opacity:0.1;fill:#ffffff;fill-rule:evenodd;stroke-width:1.41806"
         d="m 31.647534,12.092024 c -1.211103,4.91e-4 -2.389313,0.454599 -3.317473,1.416588 L 11.811835,30.601844 c -0.910152,0.943402 -1.392982,2.186886 -1.411096,3.418086 -2.73e-4,0.01872 0,0.06551 0,0.08596 -9e-6,0.196562 0.03883,0.36382 0.08854,0.521163 0.172527,-0.951909 0.61323,-1.870601 1.322558,-2.605841 L 28.330058,14.92796 c 0.928162,-0.961981 2.106372,-1.41608 3.317475,-1.41658 h 0.0029 c 1.210497,5e-4 2.38911,0.454502 3.317484,1.41658 L 51.40594,32.021196 c 0.791552,0.820496 1.30011,1.869517 1.436005,2.938495 0.05567,-0.264325 0.06085,-0.54365 0.0581,-0.856602 -2.24e-4,-0.02421 0,-0.05733 0,-0.08317 C 52.884,32.788815 52.316002,31.545205 51.405923,30.601833 L 34.967783,13.508612 C 34.039408,12.546519 32.860794,12.092515 31.650295,12.092024 Z M 20.214829,39.630812 c -0.831211,1.203715 -4.147531,0.778138 -4.147531,2.810991 0,0.253319 0.09249,0.453058 0.224106,0.632046 0.936912,-1.421021 4.501048,-0.858376 4.086671,-2.966218 -0.03507,-0.178236 -0.103323,-0.323076 -0.163246,-0.476819 z m 20.231348,1.810226 c -0.09182,0.185404 -0.132026,0.401826 -0.113447,0.668102 0.03614,2.135095 2.036053,2.510598 2.537216,4.163805 0.11259,-0.287914 0.158407,-0.615157 0.11345,-0.995216 -0.212942,-1.799803 -2.064499,-2.197029 -2.537227,-3.836691 z m 9.382458,0.460181 c -0.300359,-0.01091 -0.602513,0.01708 -0.816231,0.08598 -0.402838,0.133925 -2.312663,0.211003 -2.155391,1.885079 0.138493,0.06694 0.30536,0.116522 0.453773,0.180187 0.554171,-0.488501 1.440682,-0.559127 1.701618,-0.645918 0.213718,-0.0689 0.515872,-0.09685 0.816231,-0.08591 0.589912,0.02516 1.234062,0.254899 1.54668,0.759574 0.06464,-0.11521 0.131866,-0.227427 0.160476,-0.379787 0.235897,-1.255239 -0.805939,-1.760714 -1.707156,-1.799143 z m -31.758132,4.310736 c -0.168388,0.02311 -0.283655,0.104817 -0.448242,0.180195 -1.217865,0.557546 -2.041866,1.680115 -1.186983,2.284264 0.28313,-0.332037 0.704489,-0.644014 1.186983,-0.864908 0.164587,-0.07534 0.279854,-0.157087 0.448242,-0.180195 0.168349,-0.02311 0.35094,-0.01732 0.522941,0 0.465168,0.04922 0.90847,0.228886 1.281057,0.404736 0.963693,-0.624015 0.955039,-0.759166 0.87986,-1.014615 -0.149439,0.03598 -1.12878,-0.700252 -2.160917,-0.809477 -0.172001,-0.01732 -0.354592,-0.02311 -0.522941,0 z m 8.981258,0.856602 c -0.842692,0.906865 -3.134,1.364889 -2.302037,2.794355 0.03851,0.06614 0.08779,0.119275 0.132791,0.177415 0.87685,-0.934052 3.294511,-1.38812 2.213486,-2.927413 -0.01164,-0.01685 -0.03188,-0.02789 -0.04429,-0.04437 z m 9.418428,3.928175 c -0.704439,0.785651 -0.02964,1.382538 0.43716,1.979332 0.80789,-0.743152 0.0376,-1.330457 -0.43716,-1.979332 z"
         id="path5" />
    </g>
  </g>
</svg>
