<?xml version="1.0" encoding="UTF-8" standalone="no"?>
<svg
   viewBox="0 0 16 16"
   version="1.1"
   id="svg1"
   sodipodi:docname="folder-games.svg"
   inkscape:version="1.4.2 (unknown)"
   xmlns:inkscape="http://www.inkscape.org/namespaces/inkscape"
   xmlns:sodipodi="http://sodipodi.sourceforge.net/DTD/sodipodi-0.dtd"
   xmlns="http://www.w3.org/2000/svg"
   xmlns:svg="http://www.w3.org/2000/svg">
  <sodipodi:namedview
     id="namedview1"
     pagecolor="#ffffff"
     bordercolor="#000000"
     borderopacity="0.25"
     inkscape:showpageshadow="2"
     inkscape:pageopacity="0.0"
     inkscape:pagecheckerboard="0"
     inkscape:deskcolor="#d1d1d1"
     inkscape:zoom="48.3125"
     inkscape:cx="8.0103493"
     inkscape:cy="8"
     inkscape:window-width="1920"
     inkscape:window-height="998"
     inkscape:window-x="0"
     inkscape:window-y="0"
     inkscape:window-maximized="1"
     inkscape:current-layer="svg1" />
  <defs
     id="defs3051">
    <style
       type="text/css"
       id="current-color-scheme">
.ColorScheme-Text { 
    color:#0a0b0c;
}</style>
  </defs>
  <path
     style="fill:currentColor"
     d="M 4 4 A 2 4 0 0 0 2 8 L 2 10.5 A 1.5 1.5 0 0 0 4.6 11.6 L 5.5 10.6 A 1.5 1.5 0 0 0 6.5 11 A 1.5 1.5 0 0 0 8 9.5 A 1.5 1.5 0 0 0 10.5 10.6 L 11.4 11.6 A 1.5 1.5 0 0 0 14 10.5 L 14 8 A 2 4 0 0 0 12 4 L 4 4 z M 4 5 L 12 5 A 1 3 0 0 1 13 8 L 13 10.5 A 0.5 0.5 0 0 1 12.1 10.8 L 10.4 9.1 A 0.6 0.6 0 0 0 10.5 9.1 A 0.6 0.6 0 0 0 11.1 8.5 A 0.6 0.6 0 0 0 10.5 7.9 A 0.6 0.6 0 0 0 9.9 8.5 A 0.6 0.6 0 0 0 10.2 9 L 10 9 L 10 9.5 A 0.5 0.5 0 0 1 9 9.5 L 9 9 L 7 9 L 7 9.5 A 0.5 0.5 0 0 1 6 9.5 L 6 9 L 6 8 L 7 8 L 7 7 L 6 7 L 6 6 L 5 6 L 5 7 L 4 7 L 4 8 L 5 8 L 5 9 L 5.7 9 L 3.8 10.8 A 0.5 0.5 0 0 1 3 10.5 L 3 8 A 1 3 0 0 1 4 5 z M 10.5 5.9 A 0.6 0.6 0 0 0 9.9 6.5 A 0.6 0.6 0 0 0 10.5 7.1 A 0.6 0.6 0 0 0 11.1 6.5 A 0.6 0.6 0 0 0 10.5 5.9 z M 9.5 6.9 A 0.6 0.6 0 0 0 8.9 7.5 A 0.6 0.6 0 0 0 9.5 8.1 A 0.6 0.6 0 0 0 10.1 7.5 A 0.6 0.6 0 0 0 9.5 6.9 z M 11.5 6.9 A 0.6 0.6 0 0 0 10.9 7.5 A 0.6 0.6 0 0 0 11.5 8.1 A 0.6 0.6 0 0 0 12.1 7.5 A 0.6 0.6 0 0 0 11.5 6.9 z "
     class="ColorScheme-Text"
     id="path1" />
</svg>
