<?xml version="1.0" encoding="UTF-8" standalone="no"?>
<svg
   viewBox="0 0 16 16"
   version="1.1"
   id="svg1"
   sodipodi:docname="folder-arch.svg"
   inkscape:version="1.4.2 (unknown)"
   xmlns:inkscape="http://www.inkscape.org/namespaces/inkscape"
   xmlns:sodipodi="http://sodipodi.sourceforge.net/DTD/sodipodi-0.dtd"
   xmlns="http://www.w3.org/2000/svg"
   xmlns:svg="http://www.w3.org/2000/svg">
  <sodipodi:namedview
     id="namedview1"
     pagecolor="#ffffff"
     bordercolor="#000000"
     borderopacity="0.25"
     inkscape:showpageshadow="2"
     inkscape:pageopacity="0.0"
     inkscape:pagecheckerboard="0"
     inkscape:deskcolor="#d1d1d1"
     inkscape:zoom="48.3125"
     inkscape:cx="8.0103493"
     inkscape:cy="8"
     inkscape:window-width="1920"
     inkscape:window-height="998"
     inkscape:window-x="0"
     inkscape:window-y="0"
     inkscape:window-maximized="1"
     inkscape:current-layer="svg1" />
  <defs
     id="defs3051">
    <style
       type="text/css"
       id="current-color-scheme">
.ColorScheme-Text { 
    color:#0a0b0c;
}</style>
  </defs>
  <path
     d="M 7.997608,2.000379 C 7.463511,3.309826 7.141395,4.1664005 6.54671,5.4369291 6.911305,5.8233948 7.358806,6.2734302 8.085555,6.7817571 7.304219,6.4602403 6.771197,6.1374383 6.372912,5.8025057 5.611865,7.390522 4.419536,9.6525769 2,14 3.90175,12.902115 5.375898,12.22526 6.749752,11.966981 6.690762,11.713251 6.657212,11.438783 6.659492,11.15243 l 0.0023,-0.06092 c 0.03017,-1.2183959 0.663981,-2.1553349 1.414796,-2.0917219 0.750793,0.063616 1.334358,1.1034449 1.304176,2.3218409 -0.0057,0.22926 -0.03153,0.449812 -0.07672,0.654363 1.35898,0.265832 2.817387,0.940982 4.693359,2.023993 -0.369947,-0.681029 -0.700122,-1.294934 -1.015393,-1.879583 -0.496658,-0.384942 -1.014704,-0.885961 -2.071432,-1.428297 0.726316,0.188731 1.24634,0.406466 1.651702,0.64985 C 9.356498,5.3732979 9.096847,4.5801924 7.997518,2 Z"
     style="stroke-width:0.0722055;fill-opacity:1;fill:currentColor"
     class="ColorScheme-Text"
     id="path1" />
</svg>
