<?xml version="1.0" encoding="UTF-8" standalone="no"?>
<svg
   viewBox="0 0 16 16"
   version="1.1"
   id="svg1"
   sodipodi:docname="folder-pictures.svg"
   inkscape:version="1.4.2 (unknown)"
   xmlns:inkscape="http://www.inkscape.org/namespaces/inkscape"
   xmlns:sodipodi="http://sodipodi.sourceforge.net/DTD/sodipodi-0.dtd"
   xmlns="http://www.w3.org/2000/svg"
   xmlns:svg="http://www.w3.org/2000/svg">
  <sodipodi:namedview
     id="namedview1"
     pagecolor="#ffffff"
     bordercolor="#000000"
     borderopacity="0.25"
     inkscape:showpageshadow="2"
     inkscape:pageopacity="0.0"
     inkscape:pagecheckerboard="0"
     inkscape:deskcolor="#d1d1d1"
     inkscape:zoom="48.3125"
     inkscape:cx="7.9896507"
     inkscape:cy="8"
     inkscape:window-width="1920"
     inkscape:window-height="998"
     inkscape:window-x="0"
     inkscape:window-y="0"
     inkscape:window-maximized="1"
     inkscape:current-layer="svg1" />
  <defs
     id="defs3051">
    <style
       type="text/css"
       id="current-color-scheme">
.ColorScheme-Text { 
    color:#0a0b0c;
}</style>
  </defs>
  <path
     style="fill:currentColor"
     d="M 2.9978816,12 H 5 L 7,10 6,9 Z M 12.982051,12 10,9 7,12 Z M 5.5,4 C 4.7,4 4,4.7 4,5.5 4,6.3 4.7,7 5.5,7 6.3,7 7,6.3 7,5.5 7,4.7 6.3,4 5.5,4 Z M 4,2 C 2.892,2 2,2.892 2,4 v 8 c 0,1.108 0.892,2 2,2 h 8 c 1.108,0 2,-0.892 2,-2 V 4 C 14,2.892 13.108,2 12,2 Z m 0,1 8,0 c 0.554,0 1,0.446 1,1 v 8 c 0,0.456911 -0.383925,0.9375 -1,0.9375 H 4 C 3.3525635,12.9375 3,12.468666 3,12 V 4 C 3,3.446 3.446,3 4,3 Z"
     class="ColorScheme-Text"
     id="path1" />
</svg>
