<?xml version="1.0" encoding="UTF-8" standalone="no"?>
<svg
   version="1.1"
   viewBox="0 0 16 16"
   id="svg1"
   sodipodi:docname="bookmark-new.svg"
   inkscape:version="1.4.2 (unknown)"
   xmlns:inkscape="http://www.inkscape.org/namespaces/inkscape"
   xmlns:sodipodi="http://sodipodi.sourceforge.net/DTD/sodipodi-0.dtd"
   xmlns="http://www.w3.org/2000/svg"
   xmlns:svg="http://www.w3.org/2000/svg">
  <sodipodi:namedview
     id="namedview1"
     pagecolor="#ffffff"
     bordercolor="#000000"
     borderopacity="0.25"
     inkscape:showpageshadow="2"
     inkscape:pageopacity="0.0"
     inkscape:pagecheckerboard="0"
     inkscape:deskcolor="#d1d1d1"
     inkscape:zoom="48.3125"
     inkscape:cx="8.0103493"
     inkscape:cy="8"
     inkscape:window-width="1920"
     inkscape:window-height="998"
     inkscape:window-x="0"
     inkscape:window-y="0"
     inkscape:window-maximized="1"
     inkscape:current-layer="svg1" />
  <defs
     id="defs1">
    <style
       type="text/css"
       id="current-color-scheme">
.ColorScheme-Text { 
    color:#0a0b0c;
} </style>
  </defs>
  <path
     style="fill:currentColor;fill-opacity:1;stroke:none"
     d="m 11,9 v 2.000013 H 9.000002 V 12 H 11 v 2.000013 h 1.000002 V 12 H 14 V 11.000013 H 12.000002 V 9 H 11 M 4,4 c 0,2 0,10 0,10 l 4,-1.59375 v -1 l -3,1.1875 C 5,12.59375 5,5 5,4 5,3 6,3 6,3 h 4 c 0,0 1,0 1,1 0,1 0,4 0,4 h 1 C 12,8 12,6 12,4 12,2 10,2 10,2 H 6 C 6,2 4,2 4,4 Z"
     class="ColorScheme-Text"
     id="path1" />
</svg>
