<?xml version="1.0" encoding="UTF-8" standalone="no"?>
<svg
   viewBox="0 0 16 16"
   version="1.1"
   id="svg1"
   sodipodi:docname="folder-open.svg"
   inkscape:version="1.4.2 (unknown)"
   xmlns:inkscape="http://www.inkscape.org/namespaces/inkscape"
   xmlns:sodipodi="http://sodipodi.sourceforge.net/DTD/sodipodi-0.dtd"
   xmlns="http://www.w3.org/2000/svg"
   xmlns:svg="http://www.w3.org/2000/svg">
  <sodipodi:namedview
     id="namedview1"
     pagecolor="#ffffff"
     bordercolor="#000000"
     borderopacity="0.25"
     inkscape:showpageshadow="2"
     inkscape:pageopacity="0.0"
     inkscape:pagecheckerboard="0"
     inkscape:deskcolor="#d1d1d1"
     inkscape:zoom="48.3125"
     inkscape:cx="8.0103493"
     inkscape:cy="8"
     inkscape:window-width="1920"
     inkscape:window-height="998"
     inkscape:window-x="0"
     inkscape:window-y="0"
     inkscape:window-maximized="1"
     inkscape:current-layer="svg1" />
  <defs
     id="defs3051">
    <style
       type="text/css"
       id="current-color-scheme">
.ColorScheme-Text { 
    color:#0a0b0c;
}</style>
  </defs>
  <path
     style="fill:currentColor"
     d="m 2,4 c 0,2 0,6 0,8 0,2 2,2 2,2 l 8,0 c 0,0 2,0 2,-2 0,-2 0,-4 0,-6 C 14,4 12,4 12,4 H 9 L 7,2 V 2 2 H 4 C 4,2 2,2 2,4 Z m 5,2 h 5 c 0,0 1,0 1,1 0,1 0,4 0,5 0,1 -1,1 -1,1 H 4 C 4,13 3,13 3,12 3,11 3.0099758,10 3,9 2.9900242,8 4,8 4,8 h 1 z"
     class="ColorScheme-Text"
     id="path1" />
</svg>
