<?xml version="1.0" encoding="UTF-8" standalone="no"?>
<svg
   viewBox="0 0 22 22"
   version="1.1"
   id="svg6"
   sodipodi:docname="folder-manjaro.svg"
   inkscape:version="1.4.2 (unknown)"
   xmlns:inkscape="http://www.inkscape.org/namespaces/inkscape"
   xmlns:sodipodi="http://sodipodi.sourceforge.net/DTD/sodipodi-0.dtd"
   xmlns="http://www.w3.org/2000/svg"
   xmlns:svg="http://www.w3.org/2000/svg"
   xmlns:rdf="http://www.w3.org/1999/02/22-rdf-syntax-ns#"
   xmlns:cc="http://creativecommons.org/ns#"
   xmlns:dc="http://purl.org/dc/elements/1.1/">
  <sodipodi:namedview
     id="namedview1"
     pagecolor="#ffffff"
     bordercolor="#000000"
     borderopacity="0.25"
     inkscape:showpageshadow="2"
     inkscape:pageopacity="0.0"
     inkscape:pagecheckerboard="0"
     inkscape:deskcolor="#d1d1d1"
     inkscape:zoom="35.136364"
     inkscape:cx="11.01423"
     inkscape:cy="11"
     inkscape:window-width="1920"
     inkscape:window-height="998"
     inkscape:window-x="0"
     inkscape:window-y="0"
     inkscape:window-maximized="1"
     inkscape:current-layer="svg6" />
  <metadata
     id="metadata10">
    <rdf:RDF>
      <cc:Work
         rdf:about="">
        <dc:format>image/svg+xml</dc:format>
        <dc:type
           rdf:resource="http://purl.org/dc/dcmitype/StillImage" />
      </cc:Work>
    </rdf:RDF>
  </metadata>
  <defs
     id="defs3051">
    <style
       type="text/css"
       id="current-color-scheme">
.ColorScheme-Text { 
    color:#0a0b0c;
} </style>
  </defs>
  <path
     style="stroke-width:1;fill-opacity:1;fill:currentColor"
     d="M 3.357302,3 C 2.882672,3 2.5,3.38272 2.5,3.857264 v 14.28547 c 0,0.474547 0.403632,0.717599 0.857302,0.857267 H 7.4999997 V 7.9999997 H 13.499999 V 3 Z m 11.142697,0 v 16.000001 h 4.142736 c 0.474544,0 0.857264,-0.38272 0.857264,-0.857267 V 3.857264 C 19.499999,3.38272 19.117279,3 18.642735,3 Z M 3.5,4 h 8.999999 V 6.9999997 H 7.4999997 a 1.0000998,1.0000998 0 0 0 -0.9999997,1 V 18.000001 H 3.54687 c -0.0193,-0.016 -0.03578,-0.016 -0.0463,-0.01997 z m 11.999999,0 h 3 v 14.000001 h -3 z M 8.4999994,8.9999994 V 19.000001 H 13.499999 V 8.9999994 Z m 1,1.0000006 h 2.9999996 v 8.000001 H 9.4999994 Z"
     id="path4-3"
     class="ColorScheme-Text" />
</svg>
