<?xml version="1.0" encoding="UTF-8" standalone="no"?>
<svg
   viewBox="0 0 16 16"
   version="1.1"
   id="svg1"
   sodipodi:docname="start-here-kde.svg"
   inkscape:version="1.4.2 (unknown)"
   xmlns:inkscape="http://www.inkscape.org/namespaces/inkscape"
   xmlns:sodipodi="http://sodipodi.sourceforge.net/DTD/sodipodi-0.dtd"
   xmlns="http://www.w3.org/2000/svg"
   xmlns:svg="http://www.w3.org/2000/svg">
  <sodipodi:namedview
     id="namedview1"
     pagecolor="#ffffff"
     bordercolor="#000000"
     borderopacity="0.25"
     inkscape:showpageshadow="2"
     inkscape:pageopacity="0.0"
     inkscape:pagecheckerboard="0"
     inkscape:deskcolor="#d1d1d1"
     inkscape:zoom="48.3125"
     inkscape:cx="8.0103493"
     inkscape:cy="8"
     inkscape:window-width="1920"
     inkscape:window-height="998"
     inkscape:window-x="0"
     inkscape:window-y="0"
     inkscape:window-maximized="1"
     inkscape:current-layer="svg1" />
  <defs
     id="defs3051">
    <style
       type="text/css"
       id="current-color-scheme">
.ColorScheme-Text { 
    color:#0a0b0c;
} </style>
  </defs>
  <path
     style="fill:currentColor"
     d="M 5 2 A 1 1 0 0 0 4 3 A 1 1 0 0 0 5 4 A 1 1 0 0 0 6 3 A 1 1 0 0 0 5 2 z M 10 2 L 8.5 3.5 L 11 6 L 8.5 8.5 L 10 10 L 14 6 L 10 2 z M 3.25 6.5 A 1.25 1.25 0 0 0 2 7.75 A 1.25 1.25 0 0 0 3.25 9 A 1.25 1.25 0 0 0 4.5 7.75 A 1.25 1.25 0 0 0 3.25 6.5 z M 6.5 11 A 1.5 1.5 0 0 0 5 12.5 A 1.5 1.5 0 0 0 6.5 14 A 1.5 1.5 0 0 0 8 12.5 A 1.5 1.5 0 0 0 6.5 11 z "
     class="ColorScheme-Text"
     id="path1" />
</svg>
